<svg width="624" id="Capa_1" data-name="Capa 1" xmlns="http://www.w3.org/2000/svg" xmlns:xlink="http://www.w3.org/1999/xlink" viewBox="0 0 624.01 449.4"><defs><style>.cls-1,.cls-19{fill:none;stroke-miterlimit:10;}.cls-1{stroke:#cdd8dd;stroke-width:3px;}.cls-2{fill:url(#linear-gradient);}.cls-3{fill:url(#linear-gradient-2);}.cls-4{fill:url(#linear-gradient-3);}.cls-5{fill:url(#linear-gradient-4);}.cls-6{fill:url(#linear-gradient-5);}.cls-7{fill:url(#linear-gradient-6);}.cls-8{fill:#ff9786;}.cls-9{fill:#2b255a;}.cls-10{fill:#ffa69c;}.cls-11{fill:url(#linear-gradient-7);}.cls-12{fill:url(#linear-gradient-8);}.cls-13{fill:url(#linear-gradient-9);}.cls-14{fill:url(#linear-gradient-10);}.cls-15{fill:url(#linear-gradient-11);}.cls-16{fill:#d1766d;}.cls-17{fill:#fff;}.cls-18{fill:url(#linear-gradient-12);}.cls-19{stroke:#9fa8b7;stroke-width:0.47px;}.cls-20{fill:url(#linear-gradient-13);}.cls-21{fill:#9fa8b7;}.cls-22{fill:url(#linear-gradient-14);}.cls-23{fill:url(#linear-gradient-15);}.cls-24{fill:url(#linear-gradient-16);}.cls-25{fill:#07085b;}.cls-26{fill:#ffc0bb;}.cls-27{fill:url(#linear-gradient-17);}.cls-28{fill:url(#linear-gradient-18);}.cls-29{fill:#fc8d84;opacity:0.6;}.cls-30{fill:#f99893;}.cls-31{fill:#333;}.cls-32{fill:url(#linear-gradient-19);}.cls-33{fill:url(#linear-gradient-20);}.cls-34{fill:url(#linear-gradient-21);}.cls-35{fill:url(#linear-gradient-22);}.cls-36{fill:url(#linear-gradient-23);}.cls-37{fill:url(#linear-gradient-24);}.cls-38{fill:url(#linear-gradient-25);}.cls-39{fill:url(#linear-gradient-26);}.cls-40{fill:url(#linear-gradient-27);}.cls-41,.cls-43{fill:#daeef7;}.cls-42{fill:url(#linear-gradient-28);}.cls-43{opacity:0.1;}.cls-44{fill:url(#linear-gradient-29);}.cls-45{fill:url(#linear-gradient-30);}.cls-46{fill:url(#linear-gradient-31);}.cls-47{fill:url(#linear-gradient-32);}.cls-48{fill:url(#linear-gradient-33);}.cls-49{fill:url(#linear-gradient-34);}.cls-50{fill:url(#linear-gradient-35);}</style><linearGradient id="linear-gradient" x1="278.44" y1="404.62" x2="365.62" y2="404.62" gradientTransform="matrix(1, 0, 0, -1, -2.17, 448.9)" gradientUnits="userSpaceOnUse"><stop offset="0" stop-color="#2b255a"/><stop offset="1" stop-color="#6c63ff"/></linearGradient><linearGradient id="linear-gradient-2" x1="309.63" y1="394.8" x2="334.43" y2="394.8" gradientTransform="matrix(1, 0, 0, -1, -2.17, 448.9)" gradientUnits="userSpaceOnUse"><stop offset="0" stop-color="#dfe9ed"/><stop offset="1" stop-color="#cdd8dd"/></linearGradient><linearGradient id="linear-gradient-3" x1="317.89" y1="394.8" x2="326.16" y2="394.8" xlink:href="#linear-gradient"/><linearGradient id="linear-gradient-4" x1="381.95" y1="432.57" x2="484.32" y2="432.57" gradientTransform="matrix(1, 0, 0, -1, -111.1, 480)" gradientUnits="userSpaceOnUse"><stop offset="0" stop-color="#2dd2ff"/><stop offset="0.55" stop-color="#438aff"/><stop offset="1" stop-color="#6c63ff"/></linearGradient><linearGradient id="linear-gradient-5" x1="385.51" y1="408.63" x2="480.76" y2="408.63" gradientTransform="matrix(1, 0, 0, -1, -111.1, 480)" xlink:href="#linear-gradient-2"/><linearGradient id="linear-gradient-6" x1="659.72" y1="308.13" x2="679.51" y2="308.13" gradientTransform="matrix(1, 0, 0, -1, -111.1, 480)" gradientUnits="userSpaceOnUse"><stop offset="0" stop-color="#438aff"/><stop offset="1" stop-color="#2dd2ff"/></linearGradient><linearGradient id="linear-gradient-7" x1="621.59" y1="294.97" x2="651.31" y2="294.97" xlink:href="#linear-gradient-6"/><linearGradient id="linear-gradient-8" x1="638.31" y1="295.96" x2="649.84" y2="295.96" xlink:href="#linear-gradient-6"/><linearGradient id="linear-gradient-9" x1="638.89" y1="294.77" x2="671.24" y2="294.77" xlink:href="#linear-gradient-6"/><linearGradient id="linear-gradient-10" x1="607.03" y1="204.66" x2="694.54" y2="204.66" gradientTransform="matrix(1, 0, 0, -1, -111.1, 480)" gradientUnits="userSpaceOnUse"><stop offset="0" stop-color="#cdd8dd"/><stop offset="1" stop-color="#dfe9ed"/></linearGradient><linearGradient id="linear-gradient-11" x1="611.44" y1="144.39" x2="680.54" y2="144.39" gradientTransform="matrix(1, 0, 0, -1, -111.1, 480)" xlink:href="#linear-gradient"/><linearGradient id="linear-gradient-12" x1="626.25" y1="296.26" x2="633.46" y2="296.26" xlink:href="#linear-gradient-6"/><linearGradient id="linear-gradient-13" x1="504.43" y1="250.85" x2="517.66" y2="250.85" xlink:href="#linear-gradient"/><linearGradient id="linear-gradient-14" x1="552.56" y1="262.37" x2="546.78" y2="243.23" xlink:href="#linear-gradient"/><linearGradient id="linear-gradient-15" x1="657.91" y1="168.83" x2="680.53" y2="168.83" gradientTransform="matrix(1, 0, 0, -1, -111.1, 480)" xlink:href="#linear-gradient"/><linearGradient id="linear-gradient-16" x1="532.62" y1="20.78" x2="559.99" y2="20.78" xlink:href="#linear-gradient"/><linearGradient id="linear-gradient-17" x1="91.1" y1="382.37" x2="123.41" y2="382.37" gradientTransform="matrix(1, 0, 0, 1, 0, 0)" xlink:href="#linear-gradient"/><linearGradient id="linear-gradient-18" x1="40.06" y1="378.86" x2="123.37" y2="378.86" gradientTransform="matrix(1, 0, 0, 1, 0, 0)" xlink:href="#linear-gradient"/><linearGradient id="linear-gradient-19" x1="65.2" y1="259.65" x2="113.82" y2="259.65" gradientTransform="matrix(1, 0, 0, 1, 0, 0)" xlink:href="#linear-gradient-2"/><linearGradient id="linear-gradient-20" x1="99.61" y1="255.46" x2="179.4" y2="255.46" gradientTransform="matrix(1, 0, 0, 1, 0, 0)" xlink:href="#linear-gradient"/><linearGradient id="linear-gradient-21" x1="28.55" y1="275.55" x2="83.92" y2="275.55" gradientTransform="matrix(1, 0, 0, 1, 0, 0)" xlink:href="#linear-gradient"/><linearGradient id="linear-gradient-22" x1="99.61" y1="272.76" x2="128.03" y2="272.76" gradientTransform="matrix(1, 0, 0, 1, 0, 0)" xlink:href="#linear-gradient"/><linearGradient id="linear-gradient-23" x1="64.16" y1="275.82" x2="284.16" y2="252.82" gradientTransform="matrix(1, 0, 0, 1, 0, 0)" xlink:href="#linear-gradient"/><linearGradient id="linear-gradient-24" x1="64.27" y1="276.88" x2="284.27" y2="253.88" gradientTransform="matrix(1, 0, 0, 1, 0, 0)" xlink:href="#linear-gradient"/><linearGradient id="linear-gradient-25" x1="68.05" y1="295.31" x2="80.55" y2="339.81" gradientTransform="matrix(1, 0, 0, 1, 0, 0)" xlink:href="#linear-gradient-6"/><linearGradient id="linear-gradient-26" x1="39.66" y1="303.28" x2="52.16" y2="347.78" gradientTransform="translate(80.23 -1.6) rotate(13.9)" xlink:href="#linear-gradient-6"/><linearGradient id="linear-gradient-27" x1="-36.84" y1="323.96" x2="121.66" y2="306.96" gradientTransform="matrix(1, 0, 0, 1, 0, 0)" xlink:href="#linear-gradient"/><linearGradient id="linear-gradient-28" x1="57.89" y1="185.49" x2="99.78" y2="185.49" gradientTransform="matrix(1, 0, 0, 1, 0, 0)" xlink:href="#linear-gradient-6"/><linearGradient id="linear-gradient-29" x1="279.6" y1="395.38" x2="335.72" y2="395.38" gradientTransform="matrix(1, 0, 0, 1, 0, 0)" xlink:href="#linear-gradient-6"/><linearGradient id="linear-gradient-30" x1="265.64" y1="353.74" x2="342.61" y2="353.74" gradientTransform="matrix(1, 0, 0, 1, 0, 0)" xlink:href="#linear-gradient"/><linearGradient id="linear-gradient-31" x1="288.91" y1="292.79" x2="294.37" y2="292.79" gradientTransform="matrix(1, 0, 0, 1, 0, 0)" xlink:href="#linear-gradient"/><linearGradient id="linear-gradient-32" x1="321.54" y1="292.79" x2="327" y2="292.79" gradientTransform="matrix(1, 0, 0, 1, 0, 0)" xlink:href="#linear-gradient"/><linearGradient id="linear-gradient-33" x1="282.25" y1="282.33" x2="333.9" y2="282.33" gradientTransform="matrix(1, 0, 0, 1, 0, 0)" xlink:href="#linear-gradient-6"/><linearGradient id="linear-gradient-34" x1="318.5" y1="465.34" x2="337.51" y2="465.34" gradientTransform="matrix(1, 0, 0, 1, 0, 0)" xlink:href="#linear-gradient"/><linearGradient id="linear-gradient-35" x1="280.38" y1="465.34" x2="299.4" y2="465.34" gradientTransform="matrix(1, 0, 0, 1, 0, 0)" xlink:href="#linear-gradient"/></defs><title>People counting solution</title><line class="cls-1" x1="288.17" y1="59.23" x2="91.5" y2="107.23"/><line class="cls-1" x1="319.5" y1="73.9" x2="305.5" y2="216.57"/><line class="cls-1" x1="348.83" y1="65.23" x2="533.77" y2="100.66"/><ellipse class="cls-2" cx="319.87" cy="44.28" rx="43.59" ry="33.94"/><circle class="cls-3" cx="319.87" cy="54.1" r="12.4"/><circle class="cls-4" cx="319.87" cy="54.1" r="4.13"/><path class="cls-5" d="M270.86,37.1s-.34,16,3.45,20.67h95.44s3.79-7.8,3.45-20.67Z" transform="translate(-2.17 -37.1)"/><path class="cls-6" d="M274.78,57.77s-2,15.33,3.44,26.33h20s2.47-1.8,5-9.8c2.26-7.24,11.56-12.79,21.56-12.1a19.64,19.64,0,0,1,15.06,8.56C343.38,76,342.27,84.67,350.28,85h16.54s5.51-13.61,1.18-27.22Z" transform="translate(-2.17 -37.1)"/><path class="cls-7" d="M551.38,172.57s-.45-11.08,9.42-11.46,11.56,21.9-3.51,21.53S551.38,172.57,551.38,172.57Z" transform="translate(-2.17 -37.1)"/><polygon class="cls-8" points="533.66 348.66 537.23 412.85 529.51 412.76 518.69 350.62 533.66 348.66"/><polygon class="cls-9" points="537.61 425.73 536.56 412.89 529.35 412.74 508.72 427.09 508.77 427.77 508.68 427.83 508.78 427.83 508.85 428.79 535.37 426.82 535.31 425.9 537.61 425.73"/><polygon class="cls-10" points="497.23 288.45 498.55 298.64 501.93 300.71 500.9 288.04 497.23 288.45"/><polygon class="cls-10" points="536.08 362.01 531.74 426.15 539.46 426.15 551.03 364.15 536.08 362.01"/><polygon class="cls-8" points="528.6 169.17 527.22 186.56 540.29 189.38 541.99 158.5 528.6 169.17"/><path class="cls-11" d="M540.21,166.73s-15.65-14.43-26.68,6.59c-7.15,13.63.54,34.85.54,34.85l8.49-20.33S532.64,183,540.21,166.73Z" transform="translate(-2.17 -37.1)"/><path class="cls-10" d="M543.36,173.79s-23.25-12.54-27.81,12C511,210.52,530.29,227.26,547.9,205,563.9,184.92,556.9,173.93,543.36,173.79Z" transform="translate(-2.17 -37.1)"/><path class="cls-12" d="M527.21,185.08a6.73,6.73,0,0,1,2.6-2,7.67,7.67,0,0,1,3.33-.72,8.75,8.75,0,0,1,1.73.24,6.9,6.9,0,0,1,1.58.71,6,6,0,0,1,2.29,2.41,22.2,22.2,0,0,0-2.85-1.19,8.79,8.79,0,0,0-2.78-.45A19.57,19.57,0,0,0,527.21,185.08Z" transform="translate(-2.17 -37.1)"/><path class="cls-13" d="M527.79,170.85s-.75,17.28,17.78,23.77c0,0,6-5.4,6.28-.14s-6.24,7.1-6.24,7.1l-.69,7.2s15.39-10.3,15.22-26C560,169.66,536.72,149.88,527.79,170.85Z" transform="translate(-2.17 -37.1)"/><path class="cls-14" d="M583.38,272.91c-.21-1.75-.47-3.51-.77-5.26h0c-2.63-15.76-8.44-31.15-15.16-37.49a21.7,21.7,0,0,0-13-6.24s-3.2,13.84-20.75,12.42C518.19,235.08,518,221.77,518,221.77s-13.26.37-18.29,10.85.88,39.72-2.45,53.15h0a61.9,61.9,0,0,0-1.3,14,219.59,219.59,0,0,0,1.77,25.57l.1.81c.06.5.12.91.16,1.22l0,.4v.33a10,10,0,0,0,8.8-.42L516.56,268,546,264.35l2.49,20.25,7.87-24h0l1.77-5.38s7.55,9.22,8.39,16.77a16.29,16.29,0,0,1-.65,5.72c-2.27,8.62-9.36,19.89-11.11,22.6h0l-.28.43h0l-.09.14s6.29,9.22,10.9,5.45C565.36,306.45,584.64,283.39,583.38,272.91Zm-70.82-6,.72-7.73,1.75.28a22.89,22.89,0,0,1-2.46,7.41Z" transform="translate(-2.17 -37.1)"/><path class="cls-8" d="M531.4,219.67,518,221.77s-4.19,16.77,15.51,17.61,26-13,26-13l-18-5.24Z" transform="translate(-2.17 -37.1)"/><path class="cls-15" d="M562.71,291.26C546.9,278.84,549.07,244,549.07,244l-36,4.39c-1.63,37.08-9,31-12.17,50-4.51,27,22.13,112.42,22.13,112.42l9.49.57.47,13.37,19.23,2.47c6.15-27.38,13.43-78.61,16.35-96.3C572.4,307.32,562.71,291.26,562.71,291.26Z" transform="translate(-2.17 -37.1)"/><path class="cls-16" d="M523.5,189a23.75,23.75,0,0,1-1.36,4.49,22.4,22.4,0,0,1-1,2.14,8.39,8.39,0,0,1-.62,1,4.3,4.3,0,0,1-.39.51,2.38,2.38,0,0,1-.26.26,1,1,0,0,1-.51.24l.38-.64a3,3,0,0,0,.51.81,3.68,3.68,0,0,0,.78.67,4.21,4.21,0,0,0,1,.44,6.79,6.79,0,0,0,1.1.23,4.34,4.34,0,0,1-1.16.12,3.74,3.74,0,0,1-1.19-.24,3.49,3.49,0,0,1-1.07-.64,3.21,3.21,0,0,1-.81-1l.38-.64c-.15,0,.06-.07.12-.2s.19-.28.29-.44a10.41,10.41,0,0,0,.54-1l1-2A42.51,42.51,0,0,1,523.5,189Z" transform="translate(-2.17 -37.1)"/><path class="cls-17" d="M522.57,203.17l12.48-.95S526.36,208.49,522.57,203.17Z" transform="translate(-2.17 -37.1)"/><path class="cls-18" d="M515.15,185.29a4.75,4.75,0,0,1,1.31-1.91,4.52,4.52,0,0,1,2.16-1.13,3.12,3.12,0,0,1,2.49.62,3.49,3.49,0,0,1,1.24,2,9.48,9.48,0,0,0-1.79-1.1,2.93,2.93,0,0,0-1.71-.19A14,14,0,0,0,515.15,185.29Z" transform="translate(-2.17 -37.1)"/><ellipse class="cls-9" cx="533.58" cy="190.02" rx="1.36" ry="1.25" transform="translate(299.44 669.65) rotate(-85.43)"/><path class="cls-19" d="M512.47,246.71s1.69,4,2.82,3.88,2.73-2.8,2.73-2.8l-1.23-2.68" transform="translate(-2.17 -37.1)"/><polygon class="cls-20" points="502.26 188.22 506.81 185.23 515.49 207.96 509.96 210.86 502.26 188.22"/><ellipse class="cls-21" cx="513.58" cy="211.21" rx="1.21" ry="1.07"/><path class="cls-19" d="M545.9,241.2s-2.39,3.64-1.65,4.5,3.85.71,3.85.71l1.43-4.86" transform="translate(-2.17 -37.1)"/><ellipse class="cls-21" cx="546.33" cy="244.76" rx="1.07" ry="1.21" transform="translate(-29.67 378.26) rotate(-40.69)"/><polygon class="cls-22" points="547.46 185.48 553.62 186.6 547.88 205.49 542.22 204.77 547.46 185.48"/><path class="cls-23" d="M549.66,302.85l-2.85,5.08s14.39,14.52,22.62,11c0-1.57-.09-3.08-.2-4.54C565.15,315.42,557.36,315.15,549.66,302.85Z" transform="translate(-2.17 -37.1)"/><path class="cls-10" d="M555,301.66l-2.8,4.88s4,5.81,9.19,7.37l.47-7.79S559,305.71,555,301.66Z" transform="translate(-2.17 -37.1)"/><polygon class="cls-21" points="529.95 382.22 551.68 385.27 550.02 393.43 529.53 388.73 529.95 382.22"/><path class="cls-9" d="M505.4,341.58l17.24-25.75,9.76,4.78v88.88L522,407.83S508.72,365.67,505.4,341.58Z" transform="translate(-2.17 -37.1)"/><path class="cls-21" d="M520.23,406.31c.42.14,12.17.28,12.17.28l.24,7.08L522,412.54Z" transform="translate(-2.17 -37.1)"/><polygon class="cls-24" points="557.82 434.29 557.21 433.82 540.55 420.7 531.74 421.54 530.57 432.85 530.52 432.85 530.48 433.7 530.48 433.7 530.48 433.7 530.45 434.55 557.78 435.54 557.81 434.67 557.82 434.29"/><ellipse class="cls-9" cx="519.91" cy="189.78" rx="1.36" ry="1.25" transform="translate(287.31 655.89) rotate(-85.45)"/><rect class="cls-1" x="449.63" y="99.99" width="172.88" height="347.91"/><path class="cls-25" d="M101.54,458.72v8.82a1.32,1.32,0,0,0,1.32,1.32h20.69a1.49,1.49,0,0,0,.8-2.76L113,458.72S108.2,462,101.54,458.72Z" transform="translate(-2.17 -37.1)"/><path class="cls-25" d="M55.92,458.72v8.82a1.32,1.32,0,0,1-1.32,1.32H33.91a1.49,1.49,0,0,1-.8-2.76l11.34-7.39S49.27,462,55.92,458.72Z" transform="translate(-2.17 -37.1)"/><path class="cls-26" d="M172.06,230s-2.2,1.95-2.2,2.89S168,242.64,168,246.59s11.41,7,11.41,7l2.92-7s-1.56-13.26-1.77-13.26S172.06,230,172.06,230Z" transform="translate(-2.17 -37.1)"/><path class="cls-27" d="M123.36,303c-10.76,13.3-32.26,32.48-32.26,32.48h0l10.46,125.72s10.3,1.78,15.23-1.35C116.79,459.86,124.06,340.33,123.36,303Z" transform="translate(-2.17 -37.1)"/><path class="cls-28" d="M119.29,308c0-1.88,4.16,3.67,4.08,2.17-1.64-31.29-53.87-5.06-53.87-5.06L56.74,316,40.06,461s8.4,3.51,15.91,1.14L91.1,337.06S102.59,333,119.29,308Z" transform="translate(-2.17 -37.1)"/><polygon class="cls-26" points="74.77 168.09 74.71 182.52 88.75 180.36 86.41 164.14 74.77 168.09"/><path class="cls-29" d="M89.65,208.7l-1.08-7.47-11.65,5.32v2.85C79.72,210.09,85,210.71,89.65,208.7Z" transform="translate(-2.17 -37.1)"/><polygon class="cls-25" points="94.91 138.66 95.75 148.56 94.19 149.54 91.29 137.48 94.91 138.66"/><ellipse class="cls-30" cx="98.22" cy="185.26" rx="4.13" ry="3.31" transform="translate(-104.37 209.78) rotate(-79.16)"/><path class="cls-26" d="M96.8,196.88a17.19,17.19,0,0,0,.74-3.1,32.64,32.64,0,0,0,.14-8.32c-.05-.54-.08-1.08-.09-1.63a17.69,17.69,0,1,0-35,3.89,3.83,3.83,0,0,0-3.43.41c-1.87,1.33-2,4.3-.38,6.64s4.53,3.16,6.41,1.83a3.37,3.37,0,0,0,.68-.65c2.57,8.31,10.84,13.46,19.16,11.66a15.87,15.87,0,0,0,9.68-6.5,7.85,7.85,0,0,0,.48-.67A15.3,15.3,0,0,0,96.8,196.88Z" transform="translate(-2.17 -37.1)"/><circle class="cls-31" cx="76.92" cy="186.45" r="1.54" transform="translate(-39.96 -16.54) rotate(-12.25)"/><circle class="cls-31" cx="90.06" cy="184.48" r="1.54" transform="translate(-39.25 -13.8) rotate(-12.25)"/><path class="cls-25" d="M79.6,182.74a14.51,14.51,0,0,0-2.31-.25,7.63,7.63,0,0,0-2.15.25,7.06,7.06,0,0,0-2,.86l-.24.14-.23.16-.47.33c-.31.23-.6.5-.95.73a6.81,6.81,0,0,1,.55-1.1,5.6,5.6,0,0,1,.81-1,5,5,0,0,1,2.22-1.24,5.26,5.26,0,0,1,2.54,0A4.87,4.87,0,0,1,79.6,182.74Z" transform="translate(-2.17 -37.1)"/><path class="cls-25" d="M85.74,181.73A4.87,4.87,0,0,1,87.46,180a5.26,5.26,0,0,1,2.42-.77,5,5,0,0,1,2.5.46,5.61,5.61,0,0,1,1.07.64,6.81,6.81,0,0,1,.87.87c-.41-.11-.76-.27-1.13-.38l-.55-.16-.27-.08-.27-.05a7.07,7.07,0,0,0-2.14-.18,7.63,7.63,0,0,0-2.11.45A14.49,14.49,0,0,0,85.74,181.73Z" transform="translate(-2.17 -37.1)"/><path class="cls-30" d="M83.33,182a11.85,11.85,0,0,0,.18,3.32,9.13,9.13,0,0,0,.47,1.64,4.32,4.32,0,0,0,1,1.55c.55.43.8.55,1,1a1.49,1.49,0,0,1-.09,1.2,4.59,4.59,0,0,1-2.3,2,3.76,3.76,0,0,0,3-1.56,2.27,2.27,0,0,0,.31-1.94,2.81,2.81,0,0,0-1.2-1.41,4.11,4.11,0,0,1-.79-1.17,13.88,13.88,0,0,1-.59-1.45C84,184.08,83.66,183,83.33,182Z" transform="translate(-2.17 -37.1)"/><path class="cls-32" d="M99.61,214H90.42c-6.87,6.89-13.54,0-13.54,0H70.71s-16.32,85.61,7.22,89.9,35.89-3.32,35.89-3.32V260.46Z" transform="translate(-2.17 -37.1)"/><path class="cls-33" d="M99.61,214s6.93.39,19,15,19.53,48.56,32.23,36.27,17-18.53,17-18.53,7.23,2.34,11.52,6.83c0,0-22.27,41-32.62,43.1s-33-18.92-33-18.92Z" transform="translate(-2.17 -37.1)"/><path class="cls-34" d="M70.71,214s-25.78,4.1-28.13,7.9S18.44,297,34.26,326.58c0,0,8.24,2.72,15.9.38v7.9s20,5,33.74,0C83.9,334.85,85.07,240.37,70.71,214Z" transform="translate(-2.17 -37.1)"/><path class="cls-35" d="M99.61,214s13.18,97.7,9.38,117.3c0,0,12,.88,19-1.75C128,329.59,128.61,220.19,99.61,214Z" transform="translate(-2.17 -37.1)"/><path class="cls-36" d="M70.71,214l-8.84,13.73,22,107.08S85.07,240.37,70.71,214Z" transform="translate(-2.17 -37.1)"/><path class="cls-37" d="M110.14,225.77,99.61,214s13.18,97.7,9.38,117.3C117.9,309.95,110.14,225.77,110.14,225.77Z" transform="translate(-2.17 -37.1)"/><path class="cls-38" d="M76.19,317.66l-.67-2.71a2.29,2.29,0,0,0-4.44,1.1l2.85,11.48a2.29,2.29,0,0,0,4.44-1.1l-.67-2.71a1.29,1.29,0,0,0,.94-1.56l-.88-3.54A1.29,1.29,0,0,0,76.19,317.66Z" transform="translate(-2.17 -37.1)"/><rect class="cls-39" x="18.06" y="308.85" width="57.19" height="38.67" rx="3.76" ry="3.76" transform="translate(-79.66 -16.27) rotate(-13.9)"/><path class="cls-26" d="M50,327l-3.48.87s-2.77.2-2.87.18-3.08-.11-3.08-.11l-4.86-.9c.71,3.14,3.48,14.29,3.87,14.28s.92-5.21,1.41-5,2.14,7.15,2.58,6.69-.3-7.09.11-7.06,1.91,6.78,2.81,6.54-1-7.6-.2-7.51,2.53,7.67,3.31,7.31-1.09-8.82-1.66-11.53a.45.45,0,0,1,.61-.51c5.12,2,5.64,1.86,5.73,1.25C54.34,331.19,52.35,329.21,50,327Z" transform="translate(-2.17 -37.1)"/><path class="cls-40" d="M29.26,309.17s2.28,15.4,5,17.41c0,0,8.43,2.71,16.16.55v-7.61L50.6,303H38.8Z" transform="translate(-2.17 -37.1)"/><path class="cls-41" d="M57.13,258l-.6,2.41c-.2.8-.37,1.61-.56,2.42l-.27,1.21-.25,1.21c-.17.81-.34,1.62-.5,2.43q-.94,4.87-1.68,9.79T52,287.33q-1.11,9.87-1.62,19.78c-.33,6.55-.53,13.11-.46,19.67a12.89,12.89,0,0,1-3.34.88,23.11,23.11,0,0,1-3.67.19,35.91,35.91,0,0,1-3.68-.28c-1.22-.16-2.44-.35-3.65-.61a36.78,36.78,0,0,0,3.63.77,36.11,36.11,0,0,0,3.69.41,23.49,23.49,0,0,0,3.73-.06,12.64,12.64,0,0,0,3.66-.88l.15-.06V327c.1-6.6.38-13.2.78-19.79s.95-13.17,1.64-19.74c.37-3.28.75-6.56,1.2-9.83s1-6.53,1.52-9.78,1.21-6.49,1.92-9.71S59,251.68,60,248.5C58.88,251.63,58,254.81,57.13,258Z" transform="translate(-2.17 -37.1)"/><path class="cls-42" d="M95.23,165.18s5.21-1-1.21-4.14S50,148.09,59.39,188h0l.15-.09a3.5,3.5,0,0,1,3-.15,4.53,4.53,0,0,1,2,2.21c-1,6.73,4.92,25.7,21.81,23.15s11.56-24.68,11.56-24.68.11,6-3,10.53a8,8,0,0,0-2.13-3.3c-1.93-1.77-4.71-2.44-8.27-2-3.34.41-5.76,1.71-7.21,3.87a9.36,9.36,0,0,0-1.48,4.87c-11.24-4.7-5.9-18.67-6.93-26.71l0,0s16.58,5.44,13.56.93c0,0,19.32,4.85,14.64-3.89C97.11,172.67,104.23,171.6,95.23,165.18Zm-16.6,33.19c1.18-1.76,3.23-2.82,6.08-3.17,3.07-.38,5.43.16,7,1.59a6.91,6.91,0,0,1,2,3.65c-2,2.13-5,3.64-9.48,3.49a26.64,26.64,0,0,1-6.8-1A8.07,8.07,0,0,1,78.62,198.37Z" transform="translate(-2.17 -37.1)"/><path class="cls-30" d="M81.22,197.17a9.38,9.38,0,0,0,2.25.9,7.25,7.25,0,0,0,2.38.21,6.19,6.19,0,0,0,2.28-.67,8.63,8.63,0,0,0,1.94-1.44,6.59,6.59,0,0,1-1.84,1.63,5.85,5.85,0,0,1-1.14.51,6.17,6.17,0,0,1-1.23.25,6.47,6.47,0,0,1-2.46-.29A7.1,7.1,0,0,1,81.22,197.17Z" transform="translate(-2.17 -37.1)"/><rect class="cls-31" x="165.26" y="228.67" width="24.05" height="12.8" rx="1.22" ry="1.22" transform="translate(-90.9 324.14) rotate(-78.35)"/><rect class="cls-43" x="166.82" y="228.67" width="21.23" height="11.39" rx="1.22" ry="1.22" transform="translate(-90.1 323.72) rotate(-78.35)"/><path class="cls-26" d="M185.43,232.08c-1.46-1.06-4.56-3.19-5.22-2.83-.86.48,3.71,4.25,3.37,4.49s-5.48-1.5-5.62-.85,4.73,3,4.68,3.36-4.93-.49-5.21.09,4.65,2.13,4.67,2.36c.21,1.93-5.18,1.17-5.28,1.81-.07.46,3.51,1.18,5.56,1.56l-.82,4,.76.58,3.71-13A1.49,1.49,0,0,0,185.43,232.08Z" transform="translate(-2.17 -37.1)"/><path class="cls-41" d="M58,179a12.5,12.5,0,0,0,7.61,2.49,14.55,14.55,0,0,0,3.35-.4q0-.59.06-1.17a11.75,11.75,0,0,1-11.09-2.44Q57.92,178.23,58,179Z" transform="translate(-2.17 -37.1)"/><path class="cls-41" d="M69,177.48q0-.58-.06-1.14c-1.21.23-7.26,1.13-10.88-3.32-.06.5-.11,1-.14,1.54a11.84,11.84,0,0,0,8.45,3.13A15.66,15.66,0,0,0,69,177.48Z" transform="translate(-2.17 -37.1)"/><path class="cls-41" d="M289.64,448.46l.6,16.1,6.13,3.29,2.9-5.27,1.46-12.5A75.53,75.53,0,0,1,289.64,448.46Z" transform="translate(-2.17 -37.1)"/><path class="cls-41" d="M328.27,448.46l-.6,16.1-6.13,3.29-2.9-5.27-1.46-12.5A75.53,75.53,0,0,0,328.27,448.46Z" transform="translate(-2.17 -37.1)"/><path class="cls-26" d="M328.54,352.45c-.14,3.2.81,11,.89,14.92s2.1,16.05,2.21,17.29l6.08.22c1.61-8.33.73-40.15.73-40.15l.24-.61s-7.76,1.09-10.08,2.55S328.67,349.25,328.54,352.45Z" transform="translate(-2.17 -37.1)"/><polygon class="cls-26" points="327.87 363.44 325.49 427.46 319.37 430.75 316.47 425.49 310.18 371.61 327.87 363.44"/><polygon class="cls-26" points="285.7 363.44 288.07 427.46 294.2 430.75 297.1 425.49 303.38 371.61 285.7 363.44"/><path class="cls-44" d="M288.17,378l-8.56,31.45s15,4.58,26.75,3.4l1.31-16.6,2.9-1.23,1.89,18.44s14.26.82,23.26-1.73L329,377.22Z" transform="translate(-2.17 -37.1)"/><path class="cls-26" d="M316.65,321.38s-5.87-1.23-16.78-.45,5,6.91,5,6.91,5.6-.18,5.84-.23S316.65,321.38,316.65,321.38Z" transform="translate(-2.17 -37.1)"/><rect class="cls-26" x="302.77" y="315.22" width="9.69" height="16.98" transform="translate(613.06 610.33) rotate(180)"/><path class="cls-26" d="M269.07,332.63l-6.71,2.87-9.51-12.61-5.3,2.79,6.6,14.76a9.53,9.53,0,0,0,9.57,6.21l11.64-.76Z" transform="translate(-2.17 -37.1)"/><path class="cls-26" d="M247.69,326c-.54-.46-1-.82-1-.82-5.12-5.17-5-5.29-4.82-5.51s2.87,1.3,2.95,1-2.79-3.46-2.42-3.52,3.38,2.53,3.51,2.32-2.69-3.22-2.27-3.58,3.4,3,3.62,2.62-2.92-3.82-2.48-4.09,4,3.5,5.11,4.69a.27.27,0,0,0,.45-.13c.74-3.18,1-3.39,1.32-3.23s.89,4.43,1.28,7.19l-5.22,3Z" transform="translate(-2.17 -37.1)"/><path class="cls-26" d="M337.67,384.38c.27.65.54,1.2.54,1.2,2.14,6.95,2,7,1.72,7.11s-1.94-2.48-2.15-2.25.88,4.36.52,4.24-1.83-3.81-2-3.68.9,4.1.36,4.22-1.61-4.27-2-4,.82,4.74.31,4.77-1.9-4.94-2.36-6.52a.27.27,0,0,0-.46-.1c-2.13,2.48-2.44,2.55-2.66,2.25s1.26-4.34,2.19-7l6-.28Z" transform="translate(-2.17 -37.1)"/><path class="cls-30" d="M302.79,318.13v-5.79h9.67v4.93C310.38,318.38,307.29,319,302.79,318.13Z" transform="translate(-2.17 -37.1)"/><path class="cls-26" d="M287.53,295a3.6,3.6,0,0,1,3.24.13,17.22,17.22,0,0,1,34.45,0,3.59,3.59,0,0,1,3.24-.13c1.94,1,2.54,3.69,1.34,6.1s-3.73,3.6-5.67,2.65a3.17,3.17,0,0,1-.73-.5,15.53,15.53,0,0,1-30.83,0,3.17,3.17,0,0,1-.73.5c-1.94,1-4.47-.23-5.67-2.65S285.6,296,287.53,295Z" transform="translate(-2.17 -37.1)"/><circle class="cls-31" cx="313.8" cy="298.64" r="1.45" transform="translate(-3.69 558.57) rotate(-86.87)"/><circle class="cls-31" cx="301.32" cy="298.78" r="1.45" transform="matrix(0.05, -1, 1, 0.05, -15.62, 546.24)"/><path class="cls-25" d="M310.76,295.6a13.66,13.66,0,0,1,2.1-.57,7.17,7.17,0,0,1,2-.08,6.64,6.64,0,0,1,2,.5,6,6,0,0,1,1,.44c.33.16.63.37,1,.53a6.37,6.37,0,0,0-.67-.94,5.27,5.27,0,0,0-.89-.76,4.72,4.72,0,0,0-2.25-.82,4.93,4.93,0,0,0-2.36.34A4.57,4.57,0,0,0,310.76,295.6Z" transform="translate(-2.17 -37.1)"/><path class="cls-25" d="M304.92,295.58a4.57,4.57,0,0,0-1.86-1.38,4.94,4.94,0,0,0-2.36-.36,4.72,4.72,0,0,0-2.25.8,5.25,5.25,0,0,0-.9.76,6.36,6.36,0,0,0-.68.94c.36-.16.67-.36,1-.52a6,6,0,0,1,1-.44,6.64,6.64,0,0,1,2-.48,7.17,7.17,0,0,1,2,.1A13.69,13.69,0,0,1,304.92,295.58Z" transform="translate(-2.17 -37.1)"/><path class="cls-30" d="M307.35,296.58a8.12,8.12,0,0,0,.12,2.28,6.27,6.27,0,0,0,.32,1.12,3,3,0,0,0,.68,1.06c.38.3.55.38.66.66a1,1,0,0,1-.06.82,3.15,3.15,0,0,1-1.57,1.34,2.58,2.58,0,0,0,2.06-1.07,1.55,1.55,0,0,0,.21-1.33,1.91,1.91,0,0,0-.82-1,2.81,2.81,0,0,1-.54-.8,9.51,9.51,0,0,1-.4-1C307.78,298,307.57,297.31,307.35,296.58Z" transform="translate(-2.17 -37.1)"/><path class="cls-45" d="M316.56,320.75l9.48,1.64a11.93,11.93,0,0,1,7.6,4.71l9,18-13.19,7.37,2.19,31.43s-29.29,7.38-47.08-.55L287,340.15l-11.22,10.39s-9.31-10.66-10.13-18l20.8-10.66,13.69-1.37S308.07,329.22,316.56,320.75Z" transform="translate(-2.17 -37.1)"/><path class="cls-41" d="M329.42,352.45c-.13-1.67-.38-3.32-.67-5s-.62-3.27-1.07-4.89c.13,1.67.38,3.32.67,5S329,350.83,329.42,352.45Z" transform="translate(-2.17 -37.1)"/><path class="cls-30" d="M312,305.66a11.17,11.17,0,0,1-2.57,1.31,8.62,8.62,0,0,1-2.79.51,7.36,7.36,0,0,1-2.77-.54,10.27,10.27,0,0,1-2.45-1.5,7.84,7.84,0,0,0,2.35,1.74,7,7,0,0,0,1.4.48,7.34,7.34,0,0,0,1.48.16,7.69,7.69,0,0,0,2.89-.6A8.45,8.45,0,0,0,312,305.66Z" transform="translate(-2.17 -37.1)"/><path class="cls-46" d="M288.91,290.23v4.49a2.79,2.79,0,0,1,2.85,1.86s2.67-1.25,2.61-5.46S288.91,290.23,288.91,290.23Z" transform="translate(-2.17 -37.1)"/><path class="cls-47" d="M327,290.23v4.49a2.79,2.79,0,0,0-2.85,1.86s-2.67-1.25-2.61-5.46S327,290.23,327,290.23Z" transform="translate(-2.17 -37.1)"/><path class="cls-48" d="M327.31,288.45l-5-16.15s-7.06-1-14.26-1.21c-7.2.21-14.26,1.21-14.26,1.21l-5,16.15-6.59,5.13a145.31,145.31,0,0,1,25.82-1.89,145.32,145.32,0,0,1,25.82,1.89Z" transform="translate(-2.17 -37.1)"/><path class="cls-49" d="M318.5,461.24v7.14a1.07,1.07,0,0,0,1.07,1.07H336.3a1.21,1.21,0,0,0,.65-2.23l-9.16-6S323.88,463.93,318.5,461.24Z" transform="translate(-2.17 -37.1)"/><path class="cls-50" d="M299.4,461.24v7.14a1.07,1.07,0,0,1-1.07,1.07H281.6a1.21,1.21,0,0,1-.65-2.23l9.17-6S294,463.93,299.4,461.24Z" transform="translate(-2.17 -37.1)"/><rect class="cls-1" x="227.83" y="216.57" width="154" height="231.33"/><rect class="cls-1" x="1.5" y="107.9" width="193.33" height="339.33"/></svg>